<svg enable-background="new 0 0 480.653 480.653" viewBox="0 0 480.653 480.653" xmlns="http://www.w3.org/2000/svg"><path d="m441.992 189.649v-44.931c0-8.882-6.792-15.673-15.673-15.673h-131.658v-36.572h-31.347v36.571h-131.657c-8.882 0-15.673 6.792-15.673 15.673v60.604h31.347v-44.931h115.984v29.257c-21.943 6.792-37.616 27.167-37.616 50.678 0 29.257 24.033 53.29 53.29 53.29s53.29-24.033 53.29-53.29c0-24.033-15.673-44.408-37.616-50.678v-29.257h115.984v28.735c-22.465 6.269-38.661 26.645-38.661 51.2 0 29.257 24.033 53.29 53.29 53.29s53.29-24.033 53.29-53.29c-.003-23.509-15.154-43.362-36.574-50.676zm-163.004 72.62c-12.016 0-21.943-9.927-21.943-21.943s9.927-21.943 21.943-21.943 21.943 9.927 21.943 21.943c0 12.017-9.927 21.943-21.943 21.943zm146.285 0c-12.016 0-21.943-9.927-21.943-21.943s9.927-21.943 21.943-21.943 21.943 9.927 21.943 21.943-9.926 21.943-21.943 21.943z" fill="#1185e0"/><path d="m223.608 376.686v-39.706c0-8.882-6.792-15.673-15.673-15.673h-61.127v-41.797h-31.347v41.796h-61.126c-8.882 0-15.673 6.792-15.673 15.673v55.902h31.347v-40.229h122.253v23.51c-22.465 6.269-38.661 26.645-38.661 51.2 0 29.257 24.033 53.29 53.29 53.29s53.29-24.033 53.29-53.29c-.001-23.509-15.152-43.362-36.573-50.676zm-16.718 72.62c-12.016 0-21.943-9.927-21.943-21.943s9.927-21.943 21.943-21.943 21.943 9.927 21.943 21.943-9.927 21.943-21.943 21.943z" fill="#1185e0"/><g fill="#4dcfe0"><path d="m278.988 106.58c-29.257 0-53.29-24.033-53.29-53.29s24.033-53.29 53.29-53.29 53.29 24.033 53.29 53.29-24.033 53.29-53.29 53.29zm0-75.233c-12.016 0-21.943 9.927-21.943 21.943s9.927 21.943 21.943 21.943 21.943-9.927 21.943-21.943-9.927-21.943-21.943-21.943z"/><path d="m132.702 293.616c-29.257 0-53.29-24.033-53.29-53.29s24.033-53.29 53.29-53.29 53.29 24.033 53.29 53.29c0 29.258-24.033 53.29-53.29 53.29zm0-75.232c-12.016 0-21.943 9.927-21.943 21.943s9.927 21.943 21.943 21.943 21.943-9.927 21.943-21.943c0-12.017-9.927-21.943-21.943-21.943z"/><path d="m55.38 480.653c-29.257 0-53.29-24.033-53.29-53.29s24.033-53.29 53.29-53.29 53.29 24.033 53.29 53.29c-.001 29.257-24.033 53.29-53.29 53.29zm0-75.233c-12.016 0-21.943 9.927-21.943 21.943s9.927 21.943 21.943 21.943 21.943-9.927 21.943-21.943c-.001-12.016-9.927-21.943-21.943-21.943z"/></g></svg>